<mxfile host="Electron" agent="Mozilla/5.0 (Windows NT 10.0; Win64; x64) AppleWebKit/537.36 (KHTML, like Gecko) draw.io/24.7.17 Chrome/128.0.6613.36 Electron/32.0.1 Safari/537.36" version="24.7.17">
  <diagram id="Ht1M8jgEwFfnCIfOTk4-" name="Page-1">
    <mxGraphModel dx="1354" dy="1645" grid="1" gridSize="10" guides="1" tooltips="1" connect="1" arrows="1" fold="1" page="1" pageScale="1" pageWidth="1169" pageHeight="827" math="0" shadow="0">
      <root>
        <mxCell id="0" />
        <mxCell id="1" parent="0" />
        <mxCell id="83XSoz8aYQ8w9D5NRdWa-1" value="Private subnet" style="points=[[0,0],[0.25,0],[0.5,0],[0.75,0],[1,0],[1,0.25],[1,0.5],[1,0.75],[1,1],[0.75,1],[0.5,1],[0.25,1],[0,1],[0,0.75],[0,0.5],[0,0.25]];outlineConnect=0;gradientColor=none;html=1;whiteSpace=wrap;fontSize=12;fontStyle=0;container=1;pointerEvents=0;collapsible=0;recursiveResize=0;shape=mxgraph.aws4.group;grIcon=mxgraph.aws4.group_security_group;grStroke=0;strokeColor=#00A4A6;fillColor=#E6F6F7;verticalAlign=top;align=left;spacingLeft=30;fontColor=#147EBA;dashed=0;" vertex="1" parent="1">
          <mxGeometry x="390" y="600" width="130" height="130" as="geometry" />
        </mxCell>
        <mxCell id="83XSoz8aYQ8w9D5NRdWa-6" value="" style="sketch=0;points=[[0,0,0],[0.25,0,0],[0.5,0,0],[0.75,0,0],[1,0,0],[0,1,0],[0.25,1,0],[0.5,1,0],[0.75,1,0],[1,1,0],[0,0.25,0],[0,0.5,0],[0,0.75,0],[1,0.25,0],[1,0.5,0],[1,0.75,0]];outlineConnect=0;fontColor=#232F3E;fillColor=#C925D1;strokeColor=#ffffff;dashed=0;verticalLabelPosition=bottom;verticalAlign=top;align=center;html=1;fontSize=12;fontStyle=0;aspect=fixed;shape=mxgraph.aws4.resourceIcon;resIcon=mxgraph.aws4.rds;" vertex="1" parent="83XSoz8aYQ8w9D5NRdWa-1">
          <mxGeometry x="26" y="26" width="78" height="78" as="geometry" />
        </mxCell>
        <mxCell id="83XSoz8aYQ8w9D5NRdWa-2" value="Private subnet" style="points=[[0,0],[0.25,0],[0.5,0],[0.75,0],[1,0],[1,0.25],[1,0.5],[1,0.75],[1,1],[0.75,1],[0.5,1],[0.25,1],[0,1],[0,0.75],[0,0.5],[0,0.25]];outlineConnect=0;gradientColor=none;html=1;whiteSpace=wrap;fontSize=12;fontStyle=0;container=1;pointerEvents=0;collapsible=0;recursiveResize=0;shape=mxgraph.aws4.group;grIcon=mxgraph.aws4.group_security_group;grStroke=0;strokeColor=#00A4A6;fillColor=#E6F6F7;verticalAlign=top;align=left;spacingLeft=30;fontColor=#147EBA;dashed=0;" vertex="1" parent="1">
          <mxGeometry x="601" y="600" width="130" height="130" as="geometry" />
        </mxCell>
        <mxCell id="83XSoz8aYQ8w9D5NRdWa-3" value="Public subnet" style="points=[[0,0],[0.25,0],[0.5,0],[0.75,0],[1,0],[1,0.25],[1,0.5],[1,0.75],[1,1],[0.75,1],[0.5,1],[0.25,1],[0,1],[0,0.75],[0,0.5],[0,0.25]];outlineConnect=0;gradientColor=none;html=1;whiteSpace=wrap;fontSize=12;fontStyle=0;container=1;pointerEvents=0;collapsible=0;recursiveResize=0;shape=mxgraph.aws4.group;grIcon=mxgraph.aws4.group_security_group;grStroke=0;strokeColor=#7AA116;fillColor=#F2F6E8;verticalAlign=top;align=left;spacingLeft=30;fontColor=#248814;dashed=0;" vertex="1" parent="1">
          <mxGeometry x="390" y="390" width="130" height="130" as="geometry" />
        </mxCell>
        <mxCell id="83XSoz8aYQ8w9D5NRdWa-5" value="" style="sketch=0;points=[[0,0,0],[0.25,0,0],[0.5,0,0],[0.75,0,0],[1,0,0],[0,1,0],[0.25,1,0],[0.5,1,0],[0.75,1,0],[1,1,0],[0,0.25,0],[0,0.5,0],[0,0.75,0],[1,0.25,0],[1,0.5,0],[1,0.75,0]];outlineConnect=0;fontColor=#232F3E;fillColor=#ED7100;strokeColor=#ffffff;dashed=0;verticalLabelPosition=bottom;verticalAlign=top;align=center;html=1;fontSize=12;fontStyle=0;aspect=fixed;shape=mxgraph.aws4.resourceIcon;resIcon=mxgraph.aws4.ec2;" vertex="1" parent="83XSoz8aYQ8w9D5NRdWa-3">
          <mxGeometry x="26" y="26" width="78" height="78" as="geometry" />
        </mxCell>
        <mxCell id="83XSoz8aYQ8w9D5NRdWa-4" value="Public subnet" style="points=[[0,0],[0.25,0],[0.5,0],[0.75,0],[1,0],[1,0.25],[1,0.5],[1,0.75],[1,1],[0.75,1],[0.5,1],[0.25,1],[0,1],[0,0.75],[0,0.5],[0,0.25]];outlineConnect=0;gradientColor=none;html=1;whiteSpace=wrap;fontSize=12;fontStyle=0;container=1;pointerEvents=0;collapsible=0;recursiveResize=0;shape=mxgraph.aws4.group;grIcon=mxgraph.aws4.group_security_group;grStroke=0;strokeColor=#7AA116;fillColor=#F2F6E8;verticalAlign=top;align=left;spacingLeft=30;fontColor=#248814;dashed=0;" vertex="1" parent="1">
          <mxGeometry x="601" y="390" width="130" height="130" as="geometry" />
        </mxCell>
        <mxCell id="83XSoz8aYQ8w9D5NRdWa-8" value="" style="sketch=0;outlineConnect=0;fontColor=#232F3E;gradientColor=none;fillColor=#8C4FFF;strokeColor=none;dashed=0;verticalLabelPosition=bottom;verticalAlign=top;align=center;html=1;fontSize=12;fontStyle=0;aspect=fixed;pointerEvents=1;shape=mxgraph.aws4.application_load_balancer;" vertex="1" parent="1">
          <mxGeometry x="520" y="417" width="78" height="78" as="geometry" />
        </mxCell>
        <mxCell id="83XSoz8aYQ8w9D5NRdWa-9" value="&lt;span style=&quot;text-align: left;&quot;&gt;ap-northeast-1a&lt;/span&gt;" style="fillColor=none;strokeColor=#147EBA;dashed=1;verticalAlign=top;fontStyle=0;fontColor=#147EBA;whiteSpace=wrap;html=1;align=center;" vertex="1" parent="1">
          <mxGeometry x="370" y="360" width="170" height="400" as="geometry" />
        </mxCell>
        <mxCell id="83XSoz8aYQ8w9D5NRdWa-10" value="&lt;span style=&quot;text-align: left;&quot;&gt;ap-northeast-1c&lt;/span&gt;" style="fillColor=none;strokeColor=#147EBA;dashed=1;verticalAlign=top;fontStyle=0;fontColor=#147EBA;whiteSpace=wrap;html=1;" vertex="1" parent="1">
          <mxGeometry x="581" y="360" width="170" height="400" as="geometry" />
        </mxCell>
        <mxCell id="83XSoz8aYQ8w9D5NRdWa-11" value="ap-northeast-1" style="points=[[0,0],[0.25,0],[0.5,0],[0.75,0],[1,0],[1,0.25],[1,0.5],[1,0.75],[1,1],[0.75,1],[0.5,1],[0.25,1],[0,1],[0,0.75],[0,0.5],[0,0.25]];outlineConnect=0;gradientColor=none;html=1;whiteSpace=wrap;fontSize=12;fontStyle=0;container=1;pointerEvents=0;collapsible=0;recursiveResize=0;shape=mxgraph.aws4.group;grIcon=mxgraph.aws4.group_region;strokeColor=#00A4A6;fillColor=none;verticalAlign=top;align=left;spacingLeft=30;fontColor=#147EBA;dashed=1;" vertex="1" parent="1">
          <mxGeometry x="160" y="210" width="640" height="590" as="geometry" />
        </mxCell>
        <mxCell id="83XSoz8aYQ8w9D5NRdWa-12" value="AWS Cloud" style="points=[[0,0],[0.25,0],[0.5,0],[0.75,0],[1,0],[1,0.25],[1,0.5],[1,0.75],[1,1],[0.75,1],[0.5,1],[0.25,1],[0,1],[0,0.75],[0,0.5],[0,0.25]];outlineConnect=0;gradientColor=none;html=1;whiteSpace=wrap;fontSize=12;fontStyle=0;container=1;pointerEvents=0;collapsible=0;recursiveResize=0;shape=mxgraph.aws4.group;grIcon=mxgraph.aws4.group_aws_cloud;strokeColor=#232F3E;fillColor=none;verticalAlign=top;align=left;spacingLeft=30;fontColor=#232F3E;dashed=0;" vertex="1" parent="1">
          <mxGeometry x="140" y="170" width="680" height="650" as="geometry" />
        </mxCell>
        <mxCell id="83XSoz8aYQ8w9D5NRdWa-13" value="VPC" style="points=[[0,0],[0.25,0],[0.5,0],[0.75,0],[1,0],[1,0.25],[1,0.5],[1,0.75],[1,1],[0.75,1],[0.5,1],[0.25,1],[0,1],[0,0.75],[0,0.5],[0,0.25]];outlineConnect=0;gradientColor=none;html=1;whiteSpace=wrap;fontSize=12;fontStyle=0;container=1;pointerEvents=0;collapsible=0;recursiveResize=0;shape=mxgraph.aws4.group;grIcon=mxgraph.aws4.group_vpc2;strokeColor=#8C4FFF;fillColor=none;verticalAlign=top;align=left;spacingLeft=30;fontColor=#AAB7B8;dashed=0;" vertex="1" parent="83XSoz8aYQ8w9D5NRdWa-12">
          <mxGeometry x="40" y="90" width="600" height="520" as="geometry" />
        </mxCell>
        <mxCell id="83XSoz8aYQ8w9D5NRdWa-7" value="" style="sketch=0;points=[[0,0,0],[0.25,0,0],[0.5,0,0],[0.75,0,0],[1,0,0],[0,1,0],[0.25,1,0],[0.5,1,0],[0.75,1,0],[1,1,0],[0,0.25,0],[0,0.5,0],[0,0.75,0],[1,0.25,0],[1,0.5,0],[1,0.75,0]];outlineConnect=0;fontColor=#232F3E;fillColor=#7AA116;strokeColor=#ffffff;dashed=0;verticalLabelPosition=bottom;verticalAlign=top;align=center;html=1;fontSize=12;fontStyle=0;aspect=fixed;shape=mxgraph.aws4.resourceIcon;resIcon=mxgraph.aws4.s3;" vertex="1" parent="83XSoz8aYQ8w9D5NRdWa-13">
          <mxGeometry x="50" y="160" width="78" height="78" as="geometry" />
        </mxCell>
        <mxCell id="83XSoz8aYQ8w9D5NRdWa-23" value="" style="edgeStyle=orthogonalEdgeStyle;html=1;endArrow=block;elbow=vertical;startArrow=block;startFill=1;endFill=1;strokeColor=#545B64;rounded=0;" edge="1" parent="83XSoz8aYQ8w9D5NRdWa-13">
          <mxGeometry width="100" relative="1" as="geometry">
            <mxPoint x="274.64" y="60" as="sourcePoint" />
            <mxPoint x="380" y="158" as="targetPoint" />
            <Array as="points">
              <mxPoint x="275" y="80" />
              <mxPoint x="380" y="80" />
            </Array>
          </mxGeometry>
        </mxCell>
        <mxCell id="83XSoz8aYQ8w9D5NRdWa-24" value="Application&amp;nbsp;&lt;div&gt;Load Balancer&lt;/div&gt;" style="text;html=1;align=center;verticalAlign=middle;whiteSpace=wrap;rounded=0;" vertex="1" parent="83XSoz8aYQ8w9D5NRdWa-13">
          <mxGeometry x="330" y="238" width="100" height="30" as="geometry" />
        </mxCell>
        <mxCell id="83XSoz8aYQ8w9D5NRdWa-26" value="" style="edgeStyle=orthogonalEdgeStyle;html=1;endArrow=block;elbow=vertical;startArrow=block;startFill=1;endFill=1;strokeColor=#545B64;rounded=0;" edge="1" parent="83XSoz8aYQ8w9D5NRdWa-13">
          <mxGeometry width="100" relative="1" as="geometry">
            <mxPoint x="275" y="256" as="sourcePoint" />
            <mxPoint x="275" y="346" as="targetPoint" />
          </mxGeometry>
        </mxCell>
        <mxCell id="83XSoz8aYQ8w9D5NRdWa-27" value="Amazon EC2" style="text;html=1;align=center;verticalAlign=middle;whiteSpace=wrap;rounded=0;" vertex="1" parent="83XSoz8aYQ8w9D5NRdWa-13">
          <mxGeometry x="230" y="230" width="90" height="30" as="geometry" />
        </mxCell>
        <mxCell id="83XSoz8aYQ8w9D5NRdWa-29" value="Amazon S3" style="text;html=1;align=center;verticalAlign=middle;whiteSpace=wrap;rounded=0;" vertex="1" parent="83XSoz8aYQ8w9D5NRdWa-13">
          <mxGeometry x="44" y="238" width="90" height="30" as="geometry" />
        </mxCell>
        <mxCell id="83XSoz8aYQ8w9D5NRdWa-30" value="" style="edgeStyle=orthogonalEdgeStyle;html=1;endArrow=none;elbow=vertical;startArrow=block;startFill=1;strokeColor=#545B64;rounded=0;" edge="1" parent="83XSoz8aYQ8w9D5NRdWa-13">
          <mxGeometry width="100" relative="1" as="geometry">
            <mxPoint x="130" y="198.63" as="sourcePoint" />
            <mxPoint x="230" y="198.63" as="targetPoint" />
          </mxGeometry>
        </mxCell>
        <mxCell id="83XSoz8aYQ8w9D5NRdWa-32" value="" style="edgeStyle=orthogonalEdgeStyle;html=1;endArrow=block;elbow=vertical;startArrow=block;startFill=1;endFill=1;strokeColor=#545B64;rounded=0;" edge="1" parent="83XSoz8aYQ8w9D5NRdWa-13">
          <mxGeometry width="100" relative="1" as="geometry">
            <mxPoint x="313" y="198.79000000000002" as="sourcePoint" />
            <mxPoint x="340" y="199" as="targetPoint" />
          </mxGeometry>
        </mxCell>
        <mxCell id="83XSoz8aYQ8w9D5NRdWa-17" value="Internet&#xa;gateway" style="sketch=0;outlineConnect=0;fontColor=#232F3E;gradientColor=none;strokeColor=#232F3E;fillColor=#ffffff;dashed=0;verticalLabelPosition=bottom;verticalAlign=top;align=center;html=1;fontSize=12;fontStyle=0;aspect=fixed;shape=mxgraph.aws4.resourceIcon;resIcon=mxgraph.aws4.internet_gateway;" vertex="1" parent="83XSoz8aYQ8w9D5NRdWa-12">
          <mxGeometry x="285" y="50" width="60" height="60" as="geometry" />
        </mxCell>
        <mxCell id="83XSoz8aYQ8w9D5NRdWa-14" value="" style="sketch=0;outlineConnect=0;fontColor=#232F3E;gradientColor=none;fillColor=#232F3D;strokeColor=none;dashed=0;verticalLabelPosition=bottom;verticalAlign=top;align=center;html=1;fontSize=12;fontStyle=0;aspect=fixed;pointerEvents=1;shape=mxgraph.aws4.internet_alt1;" vertex="1" parent="1">
          <mxGeometry x="416" y="60" width="78" height="48" as="geometry" />
        </mxCell>
        <mxCell id="83XSoz8aYQ8w9D5NRdWa-15" value="" style="sketch=0;outlineConnect=0;fontColor=#232F3E;gradientColor=none;fillColor=#232F3D;strokeColor=none;dashed=0;verticalLabelPosition=bottom;verticalAlign=top;align=center;html=1;fontSize=12;fontStyle=0;aspect=fixed;pointerEvents=1;shape=mxgraph.aws4.client;" vertex="1" parent="1">
          <mxGeometry x="416" y="-110" width="78" height="76" as="geometry" />
        </mxCell>
        <mxCell id="83XSoz8aYQ8w9D5NRdWa-18" value="" style="edgeStyle=orthogonalEdgeStyle;html=1;endArrow=block;elbow=vertical;startArrow=block;startFill=1;endFill=1;strokeColor=#545B64;rounded=0;" edge="1" parent="1">
          <mxGeometry width="100" relative="1" as="geometry">
            <mxPoint x="454.38" as="sourcePoint" />
            <mxPoint x="454.38" y="60" as="targetPoint" />
          </mxGeometry>
        </mxCell>
        <mxCell id="83XSoz8aYQ8w9D5NRdWa-19" value="Client" style="text;html=1;align=center;verticalAlign=middle;whiteSpace=wrap;rounded=0;" vertex="1" parent="1">
          <mxGeometry x="425" y="-30" width="60" height="30" as="geometry" />
        </mxCell>
        <mxCell id="83XSoz8aYQ8w9D5NRdWa-20" value="Internet" style="text;html=1;align=center;verticalAlign=middle;whiteSpace=wrap;rounded=0;" vertex="1" parent="1">
          <mxGeometry x="425" y="108" width="60" height="30" as="geometry" />
        </mxCell>
        <mxCell id="83XSoz8aYQ8w9D5NRdWa-21" value="" style="edgeStyle=orthogonalEdgeStyle;html=1;endArrow=block;elbow=vertical;startArrow=block;startFill=1;endFill=1;strokeColor=#545B64;rounded=0;" edge="1" parent="1">
          <mxGeometry width="100" relative="1" as="geometry">
            <mxPoint x="454.64" y="132" as="sourcePoint" />
            <mxPoint x="454.64" y="221" as="targetPoint" />
          </mxGeometry>
        </mxCell>
        <mxCell id="83XSoz8aYQ8w9D5NRdWa-28" value="Amazon RDS" style="text;html=1;align=center;verticalAlign=middle;whiteSpace=wrap;rounded=0;" vertex="1" parent="1">
          <mxGeometry x="410" y="700" width="90" height="30" as="geometry" />
        </mxCell>
        <mxCell id="83XSoz8aYQ8w9D5NRdWa-31" value="(Picture Management)" style="text;html=1;align=center;verticalAlign=middle;whiteSpace=wrap;rounded=0;fontSize=10;" vertex="1" parent="1">
          <mxGeometry x="307" y="455" width="110" height="30" as="geometry" />
        </mxCell>
      </root>
    </mxGraphModel>
  </diagram>
</mxfile>
